<svg xmlns="http://www.w3.org/2000/svg" viewBox="0 0 900 520" role="img" aria-labelledby="title desc">
  <title id="title">Black 2021 Chrysler Pacifica Touring L</title>
  <desc id="desc">A black minivan illustration on a warm light background.</desc>
  <defs>
    <linearGradient id="bg" x1="0" x2="1" y1="0" y2="1">
      <stop offset="0" stop-color="#f1eadf"/>
      <stop offset="1" stop-color="#fbfaf7"/>
    </linearGradient>
    <linearGradient id="body" x1="0" x2="1">
      <stop offset="0" stop-color="#1d252c"/>
      <stop offset=".55" stop-color="#3d4953"/>
      <stop offset="1" stop-color="#111820"/>
    </linearGradient>
  </defs>
  <rect width="900" height="520" fill="url(#bg)"/>
  <path d="M102 337h696c31 0 56 25 56 56v14H46v-14c0-31 25-56 56-56z" fill="#17324d" opacity=".13"/>
  <path d="M135 287h97l83-77c23-22 54-34 86-34h207c35 0 67 19 84 50l34 61h37c33 0 60 27 60 60v39H80v-42c0-31 24-57 55-57z" fill="url(#body)" stroke="#0b1117" stroke-width="9"/>
  <path d="M344 218l-66 68h147v-82h-45c-13 0-26 5-36 14z" fill="#c5d9e8"/>
  <path d="M452 204v82h212l-27-45c-14-23-38-37-65-37H452z" fill="#c5d9e8"/>
  <path d="M220 287h553" stroke="#667681" stroke-width="5" opacity=".7"/>
  <rect x="725" y="309" width="72" height="29" rx="14" fill="#ffd36b"/>
  <rect x="102" y="313" width="72" height="25" rx="12" fill="#fff4cc"/>
  <circle cx="252" cy="386" r="60" fill="#17202a"/>
  <circle cx="252" cy="386" r="31" fill="#dfe7ed"/>
  <circle cx="655" cy="386" r="60" fill="#17202a"/>
  <circle cx="655" cy="386" r="31" fill="#dfe7ed"/>
  <text x="450" y="88" text-anchor="middle" fill="#17324d" font-family="Arial, sans-serif" font-size="40" font-weight="700">2021 Chrysler Pacifica</text>
</svg>
