<svg xmlns="http://www.w3.org/2000/svg" viewBox="0 0 900 520" role="img" aria-labelledby="title desc">
  <title id="title">White 2020 Hyundai Santa Fe SEL</title>
  <desc id="desc">A white SUV illustration on a soft green-blue background.</desc>
  <defs>
    <linearGradient id="bg" x1="0" x2="1" y1="0" y2="1">
      <stop offset="0" stop-color="#e2f0ec"/>
      <stop offset="1" stop-color="#f9fbfb"/>
    </linearGradient>
    <linearGradient id="body" x1="0" x2="1">
      <stop offset="0" stop-color="#d6dee3"/>
      <stop offset=".55" stop-color="#ffffff"/>
      <stop offset="1" stop-color="#b9c4cb"/>
    </linearGradient>
  </defs>
  <rect width="900" height="520" fill="url(#bg)"/>
  <path d="M99 336h701c30 0 55 25 55 55v16H45v-16c0-30 24-55 54-55z" fill="#17324d" opacity=".13"/>
  <path d="M139 292h74l79-91c18-21 44-33 72-33h223c31 0 60 16 77 42l54 82h43c33 0 59 26 59 59v35H79v-37c0-31 25-57 60-57z" fill="url(#body)" stroke="#65737d" stroke-width="9"/>
  <path d="M325 214l-61 76h161v-87h-61c-15 0-29 4-39 11z" fill="#244b6b"/>
  <path d="M452 203v87h216l-43-62c-11-16-29-25-48-25H452z" fill="#244b6b"/>
  <path d="M142 288h86l-22 96h-91z" fill="#cbd5dc"/>
  <rect x="727" y="310" width="72" height="28" rx="14" fill="#ffd36b"/>
  <rect x="102" y="313" width="70" height="25" rx="12" fill="#fff4cc"/>
  <circle cx="254" cy="385" r="61" fill="#17202a"/>
  <circle cx="254" cy="385" r="31" fill="#dfe7ed"/>
  <circle cx="656" cy="385" r="61" fill="#17202a"/>
  <circle cx="656" cy="385" r="31" fill="#dfe7ed"/>
  <text x="450" y="88" text-anchor="middle" fill="#17324d" font-family="Arial, sans-serif" font-size="40" font-weight="700">2020 Hyundai Santa Fe</text>
</svg>
